<svg xmlns="http://www.w3.org/2000/svg" width="5525.651785227349mm" height="1319.4040464659365mm" viewBox="0 0 5525.651785227349 1319.4040464659365">
<path d="M 0.0 615.3065353810057 L 44.77342110531087 1319.4040464659365 L 752.3913063225298 1301.0993443272694 L 745.6609326811193 1040.9185051758636 L 423.0388098916637 1049.26411370888 L 514.3447578430735 951.5876114991324 L 612.041279383614 860.3030843649308 L 715.681919364765 775.8276858187498 L 824.7930591091624 698.5474529068674 L 938.8760807609092 628.8155420909087 L 1057.409645877527 566.9506153878021 L 1179.8520778508487 513.2353841428666 L 1305.6438372695336 467.91531709097677 L 1434.2100789113908 431.19751860951743 L 1564.9632786803516 403.24978228945787 L 1697.305918483636 384.1998241494677 L 1830.6332167796218 374.13469899719297 L 1964.3358923183307 373.1004026048027 L 2097.8029484447898 381.10166151672104 L 2230.4244652414077 398.101911450176 L 2361.594386749971 424.0234643873555 L 2490.713290535924 458.74786359525604 L 2617.19112693878 502.11642495126233 L 2740.4499154906107 553.9309621003492 L 2859.9263861805507 613.954692130328 L 2975.074553495247 681.9133176263261 L 3085.3682114722997 757.4962801594189 L 3190.3033383648085 840.3581794816581 L 3271.6963300932107 912.0808996713511 L 3357.6676404614955 978.2466119963369 L 3447.838572894657 1038.5638619174451 L 3541.8119318267286 1092.7669568930435 L 3639.173772314707 1140.6171367328784 L 3739.495223432094 1181.9036253170607 L 3842.334377410175 1216.4445590476878 L 3947.2382362055037 1244.0877879430295 L 4053.744706919169 1264.7115458457251 L 4161.384637278122 1278.224986792796 L 4269.683882212489 1284.5685851845712 L 4378.165392425738 1283.7143979901389 L 4486.351315757723 1275.6661878340294 L 4593.765102084274 1260.4594064222867 L 4699.933602481439 1238.1610383805278 L 4804.3891534077275 1208.8693061921308 L 4906.671636723626 1172.7132375363392 L 5006.330506474335 1129.852096931811 L 5102.926773507739 1080.4746841895305 L 5196.034939185661 1024.7985027651196 L 5285.244869670456 963.0688016739297 L 5370.163602530973 895.5574951891957 L 5450.417077709838 822.5619650820399 L 5525.651785227349 744.4037506790382 L 5467.529249222528 700.8432808809301 L 5397.006527185616 769.8823472764178 L 5322.058804550104 834.0904922738023 L 5243.016336885941 893.1847840270427 L 5160.22742317132 946.9048247772591 L 5074.05687102044 995.0138982901275 L 4984.884389166457 1037.3000129408927 L 4893.102914282895 1073.5768358510036 L 4799.116879516406 1103.6845139602112 L 4703.3404323605955 1127.4903784155208 L 4606.195609723751 1144.8895291738497 L 4508.110478232072 1155.8052972417809 L 4409.517247963008 1160.1895825160077 L 4310.850367920648 1158.0230657352658 L 4212.544611645261 1149.31529361039 L 4115.033161392795 1134.1046367568836 L 4018.7456993263486 1112.4581206155185 L 3924.1065141307213 1084.4711301063107 L 3831.532631393202 1050.2669893167065 L 3741.4319759890473 1009.9964180767007 L 3654.2015745690887 963.8368678149432 L 3570.2258060700806 911.9917396228435 L 3489.8747079569926 854.6894879718163 L 3413.502345660657 792.1826140335949 L 3341.4452523958544 724.7465530388755 L 3274.0209462347966 652.6784605779578 L 3192.66109824266 561.3859658942124 L 3105.328251143178 475.7897144086328 L 3012.4202621145723 396.2796519916823 L 2914.3603866852973 323.2179980158729 L 2811.5953505333896 256.93759521397624 L 2704.593314364284 197.74039336665754 L 2593.841741138239 145.8960737275487 L 2479.8451753636714 101.64082045191886 L 2363.122944573051 65.17624462624879 L 2244.206793452613 36.668465800350575 L 2123.6384614039976 16.247355206149184 L 2001.9672145735192 4.00594411090895 L 1879.747343592299 0.0 L 1757.535638426624 4.247772520344498 L 1635.88885184226 16.72991034138281 L 1515.361163038197 37.38954931298605 L 1396.501653004688 66.13257151801584 L 1279.8518031068509 102.8280340399583 L 1165.943028289513 147.30876549188136 L 1055.294256140961 199.37212758947655 L 948.4095628447287 258.78093829845375 L 845.7758767889711 325.2645523510467 L 747.8607602950935 398.5200942088192 L 655.1102795712798 478.2138378552645 L 567.9469725945448 563.9827271320069 L 486.76792417903056 655.436029692591 L 411.942956999784 752.1571170391975 L 343.8129468131011 853.7053625329027 L 282.688269548609 959.6181487307637 L 259.7432482026323 598.7895137356455Z" fill="#FFFFFF" />
</svg>
